<svg width="117" height="128" viewBox="0 0 117 128" fill="none" xmlns="http://www.w3.org/2000/svg">
<rect x="42.3003" y="11.622" width="5.66069" height="21.4773" rx="2.83034" transform="rotate(-13.2306 42.3003 11.622)" fill="#8FC200"/>
<path d="M56.4591 10.5164C58.107 10.0951 59.6666 9.99317 61.0887 10.0839C65.8656 10.3885 67.3104 16.1433 63.404 18.9095C62.1062 19.8285 60.5991 20.5818 58.9055 20.9215C52.628 22.1806 46.726 17.3556 46.726 17.3556C46.726 17.3556 49.4407 12.3109 56.4591 10.5164Z" fill="#8FC200"/>
<circle cx="59.9271" cy="70.5883" r="47.1169" transform="rotate(-13.2306 59.9271 70.5883)" fill="#FF8800"/>
<path d="M25.8366 72.2415C24.9241 68.5658 25.5617 66.2881 27.4485 65.9426C29.3354 65.5971 30.7886 66.5829 31.7441 70.8526C32.6996 75.1222 31.8393 76.8272 30.1026 77.2309C28.3658 77.6346 26.7491 75.9172 25.8366 72.2415Z" fill="white"/>
<path d="M23.5862 88.0019C22.6736 84.3262 23.3112 82.0485 25.1981 81.703C27.0849 81.3575 28.5381 82.3433 29.4936 86.613C30.4491 90.8826 29.5888 92.5876 27.8521 92.9913C26.1153 93.395 24.4987 91.6775 23.5862 88.0019Z" fill="white"/>
<path d="M35.2898 94.1306C33.6927 90.6965 33.884 88.3391 35.6702 87.6399C37.4564 86.9407 39.0711 87.6311 40.8237 91.64C42.5763 95.6489 42.0572 97.4867 40.4294 98.2143C38.8015 98.942 36.8869 97.5646 35.2898 94.1306Z" fill="white"/>
</svg>
